<mxfile host="app.diagrams.net" modified="2021-01-21T22:23:22.526Z" agent="5.0 (X11; Linux x86_64) AppleWebKit/537.36 (KHTML, like Gecko) Chrome/85.0.4183.83 Safari/537.36" etag="J-hmhc1fQmWNjfoMB4co" version="14.1.2" type="github">
  <diagram id="FbwLlwbWRH05Lewgxh2s" name="Page-1">
    <mxGraphModel dx="928" dy="603" grid="1" gridSize="10" guides="1" tooltips="1" connect="1" arrows="1" fold="1" page="1" pageScale="1" pageWidth="850" pageHeight="1100" math="0" shadow="0">
      <root>
        <mxCell id="0" />
        <mxCell id="1" parent="0" />
        <mxCell id="JJRQ3spBi9KuivwHK7BW-1" value="0" style="rounded=0;whiteSpace=wrap;html=1;" vertex="1" parent="1">
          <mxGeometry x="170" y="70" width="20" height="30" as="geometry" />
        </mxCell>
        <mxCell id="JJRQ3spBi9KuivwHK7BW-2" value="0" style="rounded=0;whiteSpace=wrap;html=1;" vertex="1" parent="1">
          <mxGeometry x="190" y="70" width="20" height="30" as="geometry" />
        </mxCell>
        <mxCell id="JJRQ3spBi9KuivwHK7BW-3" value="3" style="rounded=0;whiteSpace=wrap;html=1;" vertex="1" parent="1">
          <mxGeometry x="210" y="70" width="20" height="30" as="geometry" />
        </mxCell>
        <mxCell id="JJRQ3spBi9KuivwHK7BW-4" value="4" style="rounded=0;whiteSpace=wrap;html=1;" vertex="1" parent="1">
          <mxGeometry x="230" y="70" width="20" height="30" as="geometry" />
        </mxCell>
        <mxCell id="JJRQ3spBi9KuivwHK7BW-5" value="4" style="rounded=0;whiteSpace=wrap;html=1;" vertex="1" parent="1">
          <mxGeometry x="250" y="70" width="20" height="30" as="geometry" />
        </mxCell>
        <mxCell id="JJRQ3spBi9KuivwHK7BW-6" value="4" style="rounded=0;whiteSpace=wrap;html=1;" vertex="1" parent="1">
          <mxGeometry x="270" y="70" width="20" height="30" as="geometry" />
        </mxCell>
        <mxCell id="JJRQ3spBi9KuivwHK7BW-7" value="4" style="rounded=0;whiteSpace=wrap;html=1;" vertex="1" parent="1">
          <mxGeometry x="290" y="70" width="20" height="30" as="geometry" />
        </mxCell>
        <mxCell id="JJRQ3spBi9KuivwHK7BW-8" value="7" style="rounded=0;whiteSpace=wrap;html=1;" vertex="1" parent="1">
          <mxGeometry x="310" y="70" width="20" height="30" as="geometry" />
        </mxCell>
        <mxCell id="JJRQ3spBi9KuivwHK7BW-9" value="7" style="rounded=0;whiteSpace=wrap;html=1;" vertex="1" parent="1">
          <mxGeometry x="330" y="70" width="20" height="30" as="geometry" />
        </mxCell>
        <mxCell id="JJRQ3spBi9KuivwHK7BW-10" value="7" style="rounded=0;whiteSpace=wrap;html=1;" vertex="1" parent="1">
          <mxGeometry x="350" y="70" width="20" height="30" as="geometry" />
        </mxCell>
        <mxCell id="JJRQ3spBi9KuivwHK7BW-11" value="0" style="rounded=0;whiteSpace=wrap;html=1;" vertex="1" parent="1">
          <mxGeometry x="170" y="130" width="20" height="30" as="geometry" />
        </mxCell>
        <mxCell id="JJRQ3spBi9KuivwHK7BW-12" value="0" style="rounded=0;whiteSpace=wrap;html=1;" vertex="1" parent="1">
          <mxGeometry x="190" y="130" width="20" height="30" as="geometry" />
        </mxCell>
        <mxCell id="JJRQ3spBi9KuivwHK7BW-13" value="1" style="rounded=0;whiteSpace=wrap;html=1;" vertex="1" parent="1">
          <mxGeometry x="210" y="130" width="20" height="30" as="geometry" />
        </mxCell>
        <mxCell id="JJRQ3spBi9KuivwHK7BW-14" value="2" style="rounded=0;whiteSpace=wrap;html=1;" vertex="1" parent="1">
          <mxGeometry x="230" y="130" width="20" height="30" as="geometry" />
        </mxCell>
        <mxCell id="JJRQ3spBi9KuivwHK7BW-15" value="2" style="rounded=0;whiteSpace=wrap;html=1;" vertex="1" parent="1">
          <mxGeometry x="250" y="130" width="20" height="30" as="geometry" />
        </mxCell>
        <mxCell id="JJRQ3spBi9KuivwHK7BW-16" value="&amp;nbsp;0&amp;nbsp; &amp;nbsp; 1&amp;nbsp; &amp;nbsp; &amp;nbsp;2&amp;nbsp; &amp;nbsp; 3&amp;nbsp; &amp;nbsp; 4&amp;nbsp; &amp;nbsp; 5&amp;nbsp; &amp;nbsp;6&amp;nbsp; &amp;nbsp; 7&amp;nbsp; &amp;nbsp; 8&amp;nbsp; &amp;nbsp; &amp;nbsp;9" style="text;html=1;strokeColor=none;fillColor=none;align=left;verticalAlign=middle;whiteSpace=wrap;rounded=0;" vertex="1" parent="1">
          <mxGeometry x="170" y="50" width="233" height="20" as="geometry" />
        </mxCell>
        <mxCell id="JJRQ3spBi9KuivwHK7BW-19" value="2" style="rounded=0;whiteSpace=wrap;html=1;" vertex="1" parent="1">
          <mxGeometry x="270" y="130" width="20" height="30" as="geometry" />
        </mxCell>
        <mxCell id="JJRQ3spBi9KuivwHK7BW-20" value="2" style="rounded=0;whiteSpace=wrap;html=1;" vertex="1" parent="1">
          <mxGeometry x="290" y="130" width="20" height="30" as="geometry" />
        </mxCell>
        <mxCell id="JJRQ3spBi9KuivwHK7BW-21" value="S0" style="text;html=1;strokeColor=none;fillColor=none;align=center;verticalAlign=middle;whiteSpace=wrap;rounded=0;" vertex="1" parent="1">
          <mxGeometry x="130" y="70" width="40" height="20" as="geometry" />
        </mxCell>
        <mxCell id="JJRQ3spBi9KuivwHK7BW-22" value="S4" style="text;html=1;strokeColor=none;fillColor=none;align=center;verticalAlign=middle;whiteSpace=wrap;rounded=0;" vertex="1" parent="1">
          <mxGeometry x="130" y="130" width="40" height="20" as="geometry" />
        </mxCell>
      </root>
    </mxGraphModel>
  </diagram>
</mxfile>
